<svg width="26" height="24" viewBox="0 0 26 24" fill="none" xmlns="http://www.w3.org/2000/svg">
<path d="M2.41887 23.3332C1.8458 23.3332 1.35496 23.1289 0.946338 22.7203C0.537716 22.3116 0.333405 21.8208 0.333405 21.2477V6.75207C0.333405 6.179 0.537716 5.68816 0.946338 5.27953C1.35496 4.87091 1.8458 4.6666 2.41887 4.6666H8.3334V2.08543C8.3334 1.51237 8.53772 1.02153 8.94634 0.612933C9.35496 0.204311 9.84581 0 10.4189 0H15.5812C16.1543 0 16.6451 0.204311 17.0537 0.612933C17.4624 1.02153 17.6667 1.51237 17.6667 2.08543V4.6666H23.5812C24.1543 4.6666 24.6451 4.87091 25.0537 5.27953C25.4624 5.68816 25.6667 6.179 25.6667 6.75207V21.2477C25.6667 21.8208 25.4624 22.3116 25.0537 22.7203C24.6451 23.1289 24.1543 23.3332 23.5812 23.3332H2.41887ZM10.0086 4.6666H15.9915V2.08543C15.9915 1.98288 15.9488 1.88886 15.8633 1.80337C15.7778 1.7179 15.6838 1.67517 15.5812 1.67517H10.4189C10.3163 1.67517 10.2223 1.7179 10.1368 1.80337C10.0513 1.88886 10.0086 1.98288 10.0086 2.08543V4.6666ZM23.9915 15.4905H15.8598V17.499H10.1676V15.4905H2.00857V21.2477C2.00857 21.3503 2.05132 21.4443 2.1368 21.5298C2.22227 21.6153 2.31629 21.658 2.41887 21.658H23.5812C23.6838 21.658 23.7778 21.6153 23.8633 21.5298C23.9488 21.4443 23.9915 21.3503 23.9915 21.2477V15.4905ZM11.8428 15.8238H14.1846V13.482H11.8428V15.8238ZM2.00857 13.8153H10.1676V11.8068H15.8598V13.8153H23.9915V6.75207C23.9915 6.64949 23.9488 6.55547 23.8633 6.47C23.7778 6.38451 23.6838 6.34177 23.5812 6.34177H2.41887C2.31629 6.34177 2.22227 6.38451 2.1368 6.47C2.05132 6.55547 2.00857 6.64949 2.00857 6.75207V13.8153Z" fill="#565E76"/>
</svg>
