<svg width="26" height="18" viewBox="0 0 26 18" fill="none" xmlns="http://www.w3.org/2000/svg">
<path d="M4.0411 17.9589C2.89239 16.8113 1.98727 15.4726 1.32574 13.9426C0.664182 12.4128 0.333405 10.7652 0.333405 8.99995C0.333405 7.23586 0.664182 5.58886 1.32574 4.05895C1.98727 2.52904 2.89239 1.18973 4.0411 0.0410156L5.24107 1.24098C4.23936 2.23698 3.45018 3.39824 2.87354 4.72475C2.29689 6.05124 2.00857 7.47631 2.00857 8.99995C2.00857 10.531 2.29462 11.9575 2.8667 13.2795C3.43879 14.6014 4.23025 15.7612 5.24107 16.7589L4.0411 17.9589ZM7.80777 14.1922C7.14795 13.5335 6.62616 12.76 6.2424 11.8717C5.85863 10.9834 5.66674 10.0261 5.66674 8.99995C5.66674 7.96919 5.85863 7.01108 6.2424 6.12562C6.62616 5.24015 7.14795 4.4675 7.80777 3.80768L9.00774 5.00765C8.49492 5.51476 8.08907 6.10935 7.7902 6.79142C7.49134 7.47346 7.34191 8.20964 7.34191 8.99995C7.34191 9.79026 7.48906 10.5227 7.78337 11.1974C8.07768 11.872 8.4858 12.4703 9.00774 12.9923L7.80777 14.1922ZM13 10.9999C12.4547 10.9999 11.9851 10.8029 11.5911 10.4089C11.1971 10.0149 11.0001 9.54524 11.0001 8.99995C11.0001 8.45466 11.1971 7.98502 11.5911 7.59102C11.9851 7.19699 12.4547 6.99998 13 6.99998C13.5453 6.99998 14.015 7.19699 14.409 7.59102C14.803 7.98502 15 8.45466 15 8.99995C15 9.54524 14.803 10.0149 14.409 10.4089C14.015 10.8029 13.5453 10.9999 13 10.9999ZM18.1923 14.1922L16.9923 12.9923C17.5052 12.4851 17.911 11.8906 18.2099 11.2085C18.5087 10.5264 18.6582 9.79026 18.6582 8.99995C18.6582 8.20964 18.511 7.47716 18.2167 6.80252C17.9224 6.12787 17.5143 5.52958 16.9923 5.00765L18.1923 3.80768C18.8521 4.4675 19.3739 5.24015 19.7577 6.12562C20.1415 7.01108 20.3333 7.96919 20.3333 8.99995C20.3333 10.017 20.1415 10.9683 19.7577 11.8538C19.3739 12.7392 18.8521 13.5187 18.1923 14.1922ZM21.959 17.9589L20.759 16.7589C21.7607 15.7629 22.5499 14.6017 23.1265 13.2752C23.7032 11.9487 23.9915 10.5236 23.9915 8.99995C23.9915 7.47175 23.7055 6.04811 23.1334 4.72902C22.5613 3.40993 21.7698 2.24725 20.759 1.24098L21.959 0.0410156C23.1077 1.19884 24.0128 2.5427 24.6743 4.07262C25.3359 5.60253 25.6667 7.24497 25.6667 8.99995C25.6667 10.7504 25.3359 12.3905 24.6743 13.9204C24.0128 15.4504 23.1077 16.7965 21.959 17.9589Z" fill="#565E76"/>
</svg>
