<svg width="24" height="24" viewBox="0 0 24 24" fill="none" xmlns="http://www.w3.org/2000/svg">
<path d="M2.75246 23.3334C2.17939 23.3334 1.68855 23.129 1.27993 22.7204C0.871303 22.3118 0.666992 21.8209 0.666992 21.2479V2.75222C0.666992 2.17915 0.871303 1.6883 1.27993 1.27968C1.68855 0.871059 2.17939 0.666748 2.75246 0.666748H11.9994V2.34192H2.75246C2.64988 2.34192 2.55586 2.38466 2.47039 2.47015C2.3849 2.55562 2.34216 2.64964 2.34216 2.75222V21.2479C2.34216 21.3505 2.3849 21.4445 2.47039 21.5299C2.55586 21.6154 2.64988 21.6582 2.75246 21.6582H11.9994V23.3334H2.75246ZM18.0653 17.282L16.8704 16.0838L20.1166 12.8376H8.12849V11.1625H20.0892L16.8431 7.91632L18.0294 6.70952L23.3336 12.018L18.0653 17.282Z" fill="#565E76"/>
</svg>
