<svg width="24" height="24" viewBox="0 0 24 24" fill="none" xmlns="http://www.w3.org/2000/svg">
<path d="M5.61724 18.3471H14.2069V16.6719H5.61724V18.3471ZM5.61724 12.8376H18.383V11.1625H5.61724V12.8376ZM5.61724 7.32821H18.383V5.65305H5.61724V7.32821ZM2.75228 23.3334C2.17921 23.3334 1.68836 23.129 1.27974 22.7204C0.87112 22.3118 0.666809 21.8209 0.666809 21.2479V2.75222C0.666809 2.17915 0.87112 1.6883 1.27974 1.27968C1.68836 0.871059 2.17921 0.666748 2.75228 0.666748H21.2479C21.821 0.666748 22.3119 0.871059 22.7205 1.27968C23.1291 1.6883 23.3334 2.17915 23.3334 2.75222V21.2479C23.3334 21.8209 23.1291 22.3118 22.7205 22.7204C22.3119 23.129 21.821 23.3334 21.2479 23.3334H2.75228ZM2.75228 21.6582H21.2479C21.3505 21.6582 21.4445 21.6154 21.53 21.5299C21.6155 21.4445 21.6582 21.3505 21.6582 21.2479V2.75222C21.6582 2.64964 21.6155 2.55562 21.53 2.47015C21.4445 2.38466 21.3505 2.34192 21.2479 2.34192H2.75228C2.6497 2.34192 2.55568 2.38466 2.47021 2.47015C2.38472 2.55562 2.34198 2.64964 2.34198 2.75222V21.2479C2.34198 21.3505 2.38472 21.4445 2.47021 21.5299C2.55568 21.6154 2.6497 21.6582 2.75228 21.6582Z" fill="#565E76"/>
</svg>
