<svg width="26" height="26" viewBox="0 0 26 26" fill="none" xmlns="http://www.w3.org/2000/svg">
<path d="M4.83254 20.3949C6.09807 19.5026 7.39279 18.8069 8.7167 18.3077C10.0406 17.8086 11.4684 17.559 13 17.559C14.5317 17.559 15.9617 17.8086 17.2902 18.3077C18.6187 18.8069 19.9157 19.5026 21.1812 20.3949C22.1037 19.3425 22.8027 18.2004 23.2782 16.9685C23.7538 15.7367 23.9915 14.4139 23.9915 13C23.9915 9.91796 22.9301 7.31554 20.8073 5.19274C18.6845 3.06994 16.0821 2.00854 13 2.00854C9.91799 2.00854 7.31557 3.06994 5.19277 5.19274C3.06997 7.31554 2.00857 9.91796 2.00857 13C2.00857 14.4139 2.2486 15.7367 2.72867 16.9685C3.20874 18.2004 3.91003 19.3425 4.83254 20.3949ZM12.9953 13.8376C11.7905 13.8376 10.7761 13.4241 9.9522 12.597C9.12827 11.77 8.7163 10.754 8.7163 9.54917C8.7163 8.34433 9.12983 7.32994 9.95687 6.50601C10.7839 5.68208 11.7999 5.27011 13.0047 5.27011C14.2096 5.27011 15.224 5.68364 16.0479 6.51071C16.8718 7.33775 17.2838 8.3537 17.2838 9.55854C17.2838 10.7634 16.8702 11.7778 16.0432 12.6017C15.2161 13.4256 14.2002 13.8376 12.9953 13.8376ZM13.0104 25.6666C11.2537 25.6666 9.60557 25.3359 8.06617 24.6743C6.52679 24.0128 5.18393 23.1082 4.03757 21.9606C2.89122 20.8131 1.98727 19.472 1.32574 17.9372C0.664182 16.4025 0.333405 14.7562 0.333405 12.9984C0.333405 11.2405 0.664182 9.59474 1.32574 8.06114C1.98727 6.52752 2.89183 5.18693 4.0394 4.03938C5.18696 2.8918 6.52809 1.98724 8.0628 1.32571C9.59752 0.664152 11.2438 0.333374 13.0017 0.333374C14.7596 0.333374 16.4053 0.664152 17.9389 1.32571C19.4725 1.98724 20.8131 2.8918 21.9607 4.03938C23.1082 5.18693 24.0128 6.52775 24.6743 8.06184C25.3359 9.59593 25.6667 11.2385 25.6667 12.9896C25.6667 14.7464 25.3359 16.3945 24.6743 17.9339C24.0128 19.4733 23.1082 20.8161 21.9607 21.9625C20.8131 23.1088 19.4723 24.0128 17.9382 24.6743C16.4041 25.3359 14.7615 25.6666 13.0104 25.6666ZM13 23.9915C14.2274 23.9915 15.429 23.7956 16.6047 23.4038C17.7805 23.0121 18.8679 22.4068 19.8667 21.588C18.8679 20.8427 17.7897 20.2641 16.6321 19.8521C15.4745 19.4402 14.2639 19.2342 13 19.2342C11.7362 19.2342 10.5234 19.438 9.36157 19.8457C8.19973 20.2534 7.1265 20.8342 6.1419 21.588C7.13506 22.4068 8.21954 23.0121 9.39534 23.4038C10.5711 23.7956 11.7727 23.9915 13 23.9915ZM13.0012 12.1624C13.7537 12.1624 14.3764 11.9156 14.8693 11.4219C15.3622 10.9282 15.6086 10.3052 15.6086 9.55268C15.6086 8.80019 15.3618 8.1775 14.8681 7.68461C14.3744 7.19172 13.7513 6.94527 12.9988 6.94527C12.2463 6.94527 11.6237 7.19212 11.1308 7.68581C10.6379 8.17947 10.3915 8.80255 10.3915 9.55504C10.3915 10.3075 10.6383 10.9302 11.132 11.4231C11.6257 11.916 12.2487 12.1624 13.0012 12.1624Z" fill="#565E76"/>
</svg>
