<svg width="26" height="25" viewBox="0 0 26 25" fill="none" xmlns="http://www.w3.org/2000/svg">
<path d="M0.941945 21.2308V19.5556H5.05138L4.10945 18.6274C2.9294 17.4632 2.07741 16.2406 1.55348 14.9594C1.02955 13.6782 0.767578 12.4012 0.767578 11.1282C0.767578 8.8422 1.42128 6.78879 2.72868 4.96799C4.03608 3.14721 5.759 1.8673 7.89745 1.12825V2.87522C6.24105 3.55215 4.91782 4.64175 3.92778 6.14402C2.93776 7.64631 2.44275 9.30771 2.44275 11.1282C2.44275 12.2462 2.64389 13.3177 3.04618 14.3428C3.44845 15.3678 4.09972 16.3094 5.00001 17.1676L6.17101 18.289V14.3266H7.84615V21.2308H0.941945ZM23.1213 9.87265H21.4479C21.3442 8.92052 21.095 8.02152 20.7004 7.17565C20.3058 6.32979 19.7419 5.54873 19.0085 4.83249L17.8376 3.71109V7.67349H16.1624V0.769287H23.0581V2.44445H18.935L19.8906 3.37269C20.9168 4.37895 21.6861 5.4365 22.1987 6.54532C22.7112 7.65414 23.0188 8.76325 23.1213 9.87265ZM18.9282 24.2051L18.7692 22.8265C18.2986 22.7062 17.8652 22.5327 17.4692 22.3059C17.0732 22.0791 16.7311 21.8139 16.4427 21.5102L15.1983 22.0734L14.2325 20.6051L15.3445 19.7162C15.2015 19.2205 15.1299 18.7612 15.1299 18.3384C15.1299 17.9156 15.2015 17.4564 15.3445 16.9606L14.2325 16.0718L15.1983 14.5812L16.4427 15.153C16.7311 14.8675 17.0732 14.6091 17.4692 14.3778C17.8652 14.1464 18.2986 13.9706 18.7692 13.8504L18.9282 12.4582H20.6034L20.776 13.8504C21.2467 13.9706 21.68 14.1476 22.076 14.3812C22.4721 14.6148 22.8142 14.8738 23.1025 15.1581L24.3469 14.5812L25.3127 16.0855L24.2008 16.9743C24.3438 17.4609 24.4153 17.9165 24.4153 18.341C24.4153 18.7655 24.3438 19.2239 24.2008 19.7162L25.3127 20.6051L24.3469 22.0734L23.1025 21.5102C22.8142 21.8139 22.4721 22.0791 22.076 22.3059C21.68 22.5327 21.2467 22.7062 20.776 22.8265L20.6034 24.2051H18.9282ZM19.7658 21.453C20.6422 21.453 21.3815 21.1518 21.9837 20.5496C22.586 19.9473 22.8872 19.2079 22.8872 18.3316C22.8872 17.4552 22.586 16.7145 21.9837 16.1094C21.3815 15.5042 20.6422 15.2017 19.7658 15.2017C18.8837 15.2017 18.1416 15.5042 17.5393 16.1094C16.937 16.7145 16.6359 17.4552 16.6359 18.3316C16.6359 19.2079 16.937 19.9473 17.5393 20.5496C18.1416 21.1518 18.8837 21.453 19.7658 21.453Z" fill="#565E76"/>
</svg>
