<svg width="28" height="20" viewBox="0 0 28 20" fill="none" xmlns="http://www.w3.org/2000/svg">
<path d="M0.400024 19.5758V16.9007C0.400024 16.2044 0.579647 15.5866 0.938891 15.0473C1.29816 14.508 1.7935 14.0929 2.42492 13.8021C3.80944 13.1733 5.11294 12.6991 6.33542 12.3798C7.55794 12.0604 8.9142 11.9007 10.4042 11.9007C11.8943 11.9007 13.2468 12.0604 14.4619 12.3798C15.677 12.6991 16.9797 13.1733 18.3699 13.8021C18.9956 14.0929 19.4904 14.508 19.8542 15.0473C20.218 15.5866 20.3999 16.2044 20.3999 16.9007V19.5758H0.400024ZM22.7418 19.5758V16.8716C22.7418 15.789 22.4862 14.8512 21.975 14.0582C21.4637 13.2652 20.7798 12.6059 19.923 12.0802C21.0096 12.2375 22.0418 12.4604 23.0196 12.749C23.9973 13.0376 24.8467 13.368 25.5677 13.7402C26.2176 14.0985 26.7316 14.5458 27.1097 15.0822C27.4878 15.6186 27.6768 16.2151 27.6768 16.8716V19.5758H22.7418ZM10.4042 9.40834C9.11807 9.40834 8.04511 8.97846 7.18536 8.1187C6.3256 7.25897 5.89572 6.18601 5.89572 4.89984C5.89572 3.61368 6.3256 2.54215 7.18536 1.68524C8.04511 0.828347 9.11807 0.399902 10.4042 0.399902C11.6904 0.399902 12.7619 0.828347 13.6188 1.68524C14.4757 2.54215 14.9042 3.61368 14.9042 4.89984C14.9042 6.18601 14.4757 7.25897 13.6188 8.1187C12.7619 8.97846 11.6904 9.40834 10.4042 9.40834ZM21.2631 4.89984C21.2631 6.18601 20.8346 7.25897 19.9777 8.1187C19.1208 8.97846 18.0483 9.40834 16.7601 9.40834C16.6088 9.40834 16.4372 9.3958 16.2452 9.37074C16.0532 9.34567 15.882 9.30807 15.7316 9.25794C16.2243 8.70098 16.5999 8.05152 16.8584 7.30957C17.1168 6.56764 17.2461 5.76529 17.2461 4.90254C17.2461 4.03978 17.1126 3.25114 16.8456 2.5366C16.5787 1.82209 16.2073 1.15715 15.7316 0.541768C15.89 0.497324 16.0612 0.462569 16.2452 0.437502C16.4292 0.412435 16.6005 0.399902 16.7589 0.399902C18.0479 0.399902 19.1208 0.828347 19.9777 1.68524C20.8346 2.54215 21.2631 3.61368 21.2631 4.89984ZM2.07516 17.9007H18.7248V16.9007C18.7248 16.5708 18.634 16.2656 18.4525 15.9853C18.271 15.7049 18.0034 15.4762 17.6495 15.2989C16.3538 14.6762 15.1578 14.2333 14.0615 13.9703C12.9652 13.7073 11.7461 13.5759 10.4042 13.5759C9.06234 13.5759 7.84097 13.7073 6.74012 13.9703C5.63928 14.2333 4.44099 14.6762 3.14526 15.2989C2.79141 15.4762 2.5246 15.7049 2.34482 15.9853C2.16505 16.2656 2.07516 16.5708 2.07516 16.9007V17.9007ZM10.4 7.73317C11.1994 7.73317 11.8707 7.46152 12.4141 6.91824C12.9574 6.37492 13.229 5.70355 13.229 4.9041C13.229 4.10468 12.9574 3.43331 12.4141 2.89C11.8707 2.34671 11.1994 2.07507 10.4 2.07507C9.60054 2.07507 8.92917 2.34671 8.38586 2.89C7.84255 3.43331 7.57089 4.10468 7.57089 4.9041C7.57089 5.70355 7.84255 6.37492 8.38586 6.91824C8.92917 7.46152 9.60054 7.73317 10.4 7.73317Z" fill="#565E76"/>
</svg>
